<?xml version="1.0" standalone="no"?>
<!DOCTYPE svg PUBLIC "-//W3C//DTD SVG 20010904//EN"
 "http://www.w3.org/TR/2001/REC-SVG-20010904/DTD/svg10.dtd">
<svg version="1.0" xmlns="http://www.w3.org/2000/svg"
 width="700.000000pt" height="700.000000pt" viewBox="0 0 700.000000 700.000000"
 preserveAspectRatio="xMidYMid meet">
<metadata>
Created by potrace 1.11, written by Peter Selinger 2001-2013
</metadata>
<g transform="translate(0.000000,700.000000) scale(0.100000,-0.100000)"
fill="#000000" stroke="none">
<path d="M3278 6995 c-1 -1 -41 -5 -88 -9 -87 -7 -105 -9 -225 -27 -116 -18
-123 -19 -192 -35 -154 -34 -203 -47 -313 -81 -600 -184 -1173 -557 -1595
-1040 -305 -348 -550 -779 -695 -1223 -28 -87 -75 -256 -85 -311 -3 -13 -12
-58 -20 -99 -8 -41 -17 -89 -19 -105 -3 -17 -7 -46 -11 -66 -6 -40 -10 -74
-22 -199 -15 -162 -8 -591 12 -711 2 -13 6 -46 9 -74 9 -78 23 -156 51 -285
31 -142 109 -391 174 -555 63 -156 243 -501 298 -570 4 -6 34 -49 65 -95 160
-239 380 -478 664 -720 90 -78 410 -300 431 -300 3 0 14 -6 22 -14 29 -25 250
-136 389 -195 175 -75 452 -165 605 -197 101 -21 216 -41 277 -49 25 -3 56 -7
69 -10 135 -26 700 -26 839 0 16 3 104 15 147 20 120 16 388 84 565 144 340
115 585 243 944 491 22 15 152 119 195 155 105 89 305 289 376 375 21 25 40
47 44 50 12 9 136 172 193 255 108 156 243 396 312 555 16 36 36 83 46 105 54
123 147 418 176 560 16 77 54 301 60 350 4 33 9 76 11 95 8 70 10 517 3 595
-13 131 -21 202 -25 227 -3 13 -8 43 -11 68 -3 25 -9 61 -14 80 -5 19 -12 51
-15 70 -12 72 -65 269 -100 375 -106 315 -228 564 -411 840 -471 710 -1176
1220 -1999 1444 -106 29 -282 67 -355 76 -19 3 -46 7 -60 10 -13 2 -54 7 -90
11 -36 3 -78 8 -95 11 -33 5 -531 13 -537 8z m491 -239 c78 -7 269 -32 311
-41 14 -2 50 -10 80 -16 454 -90 923 -301 1294 -582 268 -202 523 -461 691
-702 27 -38 52 -72 55 -75 11 -9 117 -184 162 -265 188 -343 318 -728 369
-1095 5 -41 12 -86 14 -99 17 -103 24 -459 12 -626 -68 -943 -554 -1819 -1322
-2385 -94 -69 -260 -180 -270 -180 -3 0 -23 -11 -45 -25 -54 -34 -281 -147
-360 -180 -96 -39 -272 -100 -376 -130 -88 -25 -110 -30 -164 -41 -14 -3 -41
-9 -60 -14 -30 -8 -181 -32 -285 -45 -182 -24 -622 -24 -755 0 -22 4 -89 14
-135 20 -23 3 -52 7 -65 10 -14 3 -41 8 -60 11 -150 26 -449 118 -625 192
-250 105 -511 258 -733 429 -119 92 -164 132 -286 251 -302 295 -548 649 -705
1017 -24 55 -49 115 -57 133 -24 52 -93 268 -119 372 -32 129 -53 237 -71 365
-3 28 -8 59 -10 70 -10 52 -17 217 -17 375 0 248 11 370 58 638 36 205 149
544 256 767 80 169 257 463 329 549 10 11 45 55 78 96 295 370 705 695 1137
900 258 122 523 208 800 259 172 32 203 36 350 47 50 3 91 7 92 8 6 5 363 -2
432 -8z"/>
<path d="M3427 5438 c-48 -10 -107 -41 -129 -67 -10 -11 -27 -40 -39 -63 l-22
-43 0 -1553 0 -1554 -1096 1095 c-603 602 -1112 1103 -1131 1113 -47 25 -153
25 -199 0 -49 -26 -108 -92 -124 -140 -17 -51 -14 -112 10 -166 26 -59 2621
-2655 2681 -2682 67 -30 160 -25 214 13 57 41 2631 2626 2649 2661 55 108 13
240 -99 305 -66 39 -158 40 -222 1 -25 -15 -514 -497 -1127 -1111 -596 -596
-1084 -1083 -1084 -1083 -1 1 -3 699 -4 1551 -2 1160 -5 1557 -14 1579 -42
103 -158 167 -264 144z"/>
<path d="M3980 5000 c-2 -11 -10 -743 -14 -1464 l-5 -760 72 72 c40 39 165
162 279 274 242 238 1145 1128 1224 1207 30 30 53 56 51 57 -2 2 -88 6 -193 9
-263 8 -458 20 -509 30 -11 2 -47 7 -80 10 -183 18 -337 59 -474 127 -165 82
-268 200 -328 378 -12 36 -22 63 -23 60z"/>
<path d="M2950 4977 c0 -25 -51 -140 -87 -196 -109 -170 -318 -283 -613 -331
-36 -5 -76 -12 -90 -14 -22 -4 -67 -8 -205 -21 -88 -9 -230 -15 -410 -21 -104
-3 -191 -6 -192 -8 -3 -2 767 -764 1232 -1220 77 -76 197 -195 268 -264 l127
-127 -6 895 c-4 492 -7 991 -8 1108 0 116 -4 212 -8 212 -5 0 -8 -6 -8 -13z"/>
</g>
</svg>
